<?xml version="1.0" encoding="UTF-8" standalone="no"?>
<svg
   xmlns:dc="http://purl.org/dc/elements/1.1/"
   xmlns:cc="http://creativecommons.org/ns#"
   xmlns:rdf="http://www.w3.org/1999/02/22-rdf-syntax-ns#"
   xmlns:svg="http://www.w3.org/2000/svg"
   xmlns="http://www.w3.org/2000/svg"
   id="svg2"
   version="1.1"
   viewBox="0 0 245.72 401.1">
  <metadata
     id="metadata53">
    <rdf:RDF>
      <cc:Work
         rdf:about="">
        <dc:format>image/svg+xml</dc:format>
        <dc:type
           rdf:resource="http://purl.org/dc/dcmitype/StillImage" />
        <dc:title></dc:title>
      </cc:Work>
    </rdf:RDF>
  </metadata>
  <defs
     id="defs51" />
  <g
     id="surface373">
    <path
       id="path5"
       d="M 80.34375 162.453125 C 87.300781 162.453125 92.941406 156.8125 92.941406 149.855469 L 92.941406 112.335938 L 110.285156 112.339844 L 110.285156 149.855469 C 110.285156 156.8125 115.925781 162.453125 122.882812 162.453125 C 129.84375 162.453125 135.484375 156.8125 135.484375 149.855469 L 135.484375 37.800781 C 135.484375 30.84375 129.84375 25.203125 122.882812 25.203125 C 115.925781 25.203125 110.285156 30.84375 110.285156 37.800781 L 110.285156 87.136719 L 92.941406 87.136719 L 92.941406 62.054688 C 92.941406 55.09375 87.300781 49.453125 80.34375 49.453125 C 73.382812 49.453125 67.742188 55.09375 67.742188 62.054688 L 67.742188 149.855469 C 67.742188 156.8125 73.382812 162.453125 80.34375 162.453125 "
       style=" stroke:none;fill-rule:nonzero;fill:rgb(5.592346%,52.764893%,82.418823%);fill-opacity:1;" />
    <path
       id="path7"
       d="M 165.425781 184.054688 C 172.386719 184.054688 178.027344 178.414062 178.027344 171.457031 L 178.027344 95.3125 C 178.027344 88.351562 172.386719 82.710938 165.425781 82.710938 C 158.46875 82.710938 152.824219 88.351562 152.824219 95.3125 L 152.824219 171.457031 C 152.824219 178.414062 158.46875 184.054688 165.425781 184.054688 "
       style=" stroke:none;fill-rule:nonzero;fill:rgb(5.592346%,52.764893%,82.418823%);fill-opacity:1;" />
    <path
       id="path9"
       d="M 165.425781 78.210938 C 172.386719 78.210938 178.027344 72.570312 178.027344 65.613281 L 178.027344 62.054688 C 178.027344 55.09375 172.386719 49.453125 165.425781 49.453125 C 158.46875 49.453125 152.824219 55.09375 152.824219 62.054688 L 152.824219 65.613281 C 152.824219 72.570312 158.46875 78.210938 165.425781 78.210938 "
       style=" stroke:none;fill-rule:nonzero;fill:rgb(5.592346%,52.764893%,82.418823%);fill-opacity:1;" />
    <path
       id="path11"
       d="M 220.617188 148.765625 C 214.183594 146.117188 206.820312 149.191406 204.175781 155.628906 C 203.972656 156.128906 183.507812 205.804688 169.753906 228.886719 C 159.730469 245.703125 141.707031 265.746094 112.75 265.746094 C 96.191406 265.746094 80.636719 259.269531 68.957031 247.511719 C 57.277344 235.753906 50.683594 220.011719 50.398438 203.179688 C 49.914062 174.675781 50.394531 96.179688 50.398438 95.390625 C 50.445312 88.433594 44.835938 82.753906 37.878906 82.710938 C 37.851562 82.710938 37.824219 82.710938 37.796875 82.710938 C 30.878906 82.710938 25.242188 88.300781 25.199219 95.234375 C 25.195312 96.023438 24.710938 174.816406 25.203125 203.609375 C 25.601562 226.976562 34.789062 248.878906 51.078125 265.273438 C 67.527344 281.828125 89.429688 290.945312 112.75 290.945312 C 129.613281 290.945312 145.253906 286.203125 159.230469 276.84375 C 171.679688 268.511719 182.503906 256.71875 191.398438 241.789062 C 206.101562 217.121094 226.617188 167.316406 227.484375 165.207031 C 230.128906 158.769531 227.054688 151.410156 220.617188 148.765625 "
       style=" stroke:none;fill-rule:nonzero;fill:rgb(5.592346%,52.764893%,82.418823%);fill-opacity:1;" />
    <path
       id="path13"
       d="M 174.125 364.910156 C 174.125 371.941406 178.90625 376.425781 185.28125 376.425781 C 191.65625 376.425781 196.441406 371.941406 196.441406 364.910156 C 196.441406 357.878906 191.65625 353.394531 185.28125 353.394531 C 178.90625 353.394531 174.125 357.878906 174.125 364.910156 Z M 189.738281 364.910156 C 189.738281 367.8125 187.652344 369.527344 185.28125 369.527344 C 182.910156 369.527344 180.828125 367.8125 180.828125 364.910156 C 180.828125 362.007812 182.910156 360.292969 185.28125 360.292969 C 187.652344 360.292969 189.738281 362.007812 189.738281 364.910156 "
       style=" stroke:none;fill-rule:nonzero;fill:rgb(5.592346%,52.764893%,82.418823%);fill-opacity:1;" />
    <path
       id="path15"
       d="M 32.226562 307.867188 C 32.226562 307.585938 32 307.355469 31.71875 307.355469 L 25.710938 307.355469 C 25.429688 307.355469 25.199219 307.585938 25.199219 307.867188 L 25.199219 337.617188 C 25.199219 337.898438 25.429688 338.128906 25.710938 338.128906 L 31.71875 338.128906 C 32 338.128906 32.226562 337.898438 32.226562 337.617188 L 32.230469 327.445312 C 32.230469 324.148438 34 322.433594 36.328125 322.433594 C 38.4375 322.433594 40.226562 323.578125 40.226562 326.476562 L 40.226562 337.617188 C 40.226562 337.898438 40.457031 338.128906 40.734375 338.128906 L 46.832031 338.128906 C 47.113281 338.128906 47.34375 337.898438 47.34375 337.617188 L 47.34375 324.058594 C 47.34375 318.652344 44.472656 315.621094 39.640625 315.621094 C 36.257812 315.621094 33.589844 317.289062 32.230469 319.445312 L 32.226562 307.867188 "
       style=" stroke:none;fill-rule:nonzero;fill:rgb(5.592346%,52.764893%,82.418823%);fill-opacity:1;" />
    <path
       id="path17"
       d="M 73.171875 316.65625 C 73.171875 316.378906 72.941406 316.148438 72.660156 316.148438 L 66.609375 316.148438 C 66.328125 316.148438 66.097656 316.378906 66.097656 316.65625 L 66.097656 326.832031 C 66.097656 330.128906 64.152344 331.839844 61.957031 331.839844 C 60.285156 331.839844 58.734375 330.832031 58.734375 327.929688 L 58.734375 316.65625 C 58.734375 316.378906 58.503906 316.148438 58.222656 316.148438 L 52.039062 316.148438 C 51.757812 316.148438 51.53125 316.378906 51.53125 316.65625 L 51.53125 330.214844 C 51.53125 335.621094 54.296875 338.652344 58.824219 338.652344 C 62.117188 338.652344 65 336.808594 66.363281 334.699219 L 66.363281 337.617188 C 66.363281 337.898438 66.589844 338.128906 66.871094 338.128906 L 72.660156 338.128906 C 72.941406 338.128906 73.171875 337.898438 73.171875 337.617188 L 73.171875 316.65625 "
       style=" stroke:none;fill-rule:nonzero;fill:rgb(5.592346%,52.764893%,82.418823%);fill-opacity:1;" />
    <path
       id="path19"
       d="M 139.535156 354.429688 C 139.535156 354.148438 139.3125 353.921875 139.039062 353.921875 L 133.105469 353.921875 C 132.832031 353.921875 132.605469 354.148438 132.605469 354.429688 L 132.605469 364.601562 C 132.605469 367.898438 131.011719 369.613281 128.859375 369.613281 C 127.222656 369.613281 126.019531 368.601562 126.019531 365.703125 L 126.019531 354.429688 C 126.019531 354.148438 125.792969 353.921875 125.519531 353.921875 L 119.457031 353.921875 C 119.183594 353.921875 118.957031 354.148438 118.957031 354.429688 L 118.957031 367.988281 C 118.957031 373.394531 121.671875 376.425781 126.105469 376.425781 C 129.335938 376.425781 131.527344 374.582031 132.863281 372.46875 L 132.863281 375.390625 C 132.863281 375.667969 133.089844 375.898438 133.363281 375.898438 L 139.039062 375.898438 C 139.3125 375.898438 139.539062 375.667969 139.539062 375.390625 L 139.535156 354.429688 "
       style=" stroke:none;fill-rule:nonzero;fill:rgb(5.592346%,52.764893%,82.418823%);fill-opacity:1;" />
    <path
       id="path21"
       d="M 107.828125 337.617188 C 107.828125 337.898438 108.058594 338.128906 108.339844 338.128906 L 114.347656 338.128906 C 114.628906 338.128906 114.859375 337.898438 114.859375 337.617188 L 114.859375 324.324219 C 114.859375 318.742188 110.808594 315.621094 106.285156 315.621094 C 102.945312 315.621094 99.882812 317.335938 98.785156 319.578125 C 97.554688 316.851562 94.734375 315.621094 91.792969 315.621094 C 88.234375 315.621094 85.746094 317.378906 84.46875 319.445312 L 84.46875 316.65625 C 84.46875 316.378906 84.242188 316.148438 83.960938 316.148438 L 78.128906 316.148438 C 77.847656 316.148438 77.617188 316.378906 77.617188 316.65625 L 77.617188 337.617188 C 77.617188 337.898438 77.847656 338.128906 78.128906 338.128906 L 84.136719 338.128906 C 84.417969 338.128906 84.644531 337.898438 84.644531 337.617188 L 84.648438 327.445312 C 84.648438 324.410156 86.125 322.433594 88.757812 322.433594 C 90.910156 322.433594 92.722656 323.796875 92.722656 326.566406 L 92.722656 337.617188 C 92.722656 337.898438 92.953125 338.128906 93.234375 338.128906 L 99.242188 338.128906 C 99.523438 338.128906 99.753906 337.898438 99.753906 337.617188 L 99.753906 327.445312 C 99.753906 324.410156 101.230469 322.433594 103.863281 322.433594 C 106.019531 322.433594 107.828125 323.796875 107.828125 326.566406 L 107.828125 337.617188 "
       style=" stroke:none;fill-rule:nonzero;fill:rgb(5.592346%,52.764893%,82.418823%);fill-opacity:1;" />
    <path
       id="path23"
       d="M 118.671875 319.875 C 118.527344 320.09375 118.574219 320.390625 118.78125 320.554688 L 122.363281 323.367188 C 122.585938 323.539062 122.90625 323.503906 123.082031 323.28125 C 124.257812 321.875 126.496094 321.542969 128.144531 321.542969 C 130.339844 321.542969 131.917969 322.371094 131.917969 323.355469 L 131.917969 323.53125 C 131.917969 323.929688 131.65625 324.148438 130.953125 324.234375 L 125.023438 324.761719 C 120.9375 325.113281 118.039062 327.753906 118.039062 331.710938 C 118.039062 335.882812 121.289062 338.566406 125.417969 338.566406 C 129.019531 338.566406 130.953125 336.71875 131.917969 335.226562 L 131.917969 337.617188 C 131.917969 337.898438 132.148438 338.128906 132.429688 338.128906 L 138.4375 338.128906 C 138.71875 338.128906 138.945312 337.898438 138.945312 337.617188 L 138.945312 325.027344 C 138.945312 318.390625 135.433594 315.621094 128.84375 315.621094 C 124.511719 315.621094 120.578125 316.871094 118.671875 319.875 Z M 131.917969 328.527344 L 131.917969 328.957031 C 131.917969 331.375 130.070312 333.082031 127.464844 333.082031 C 125.710938 333.082031 124.761719 332.324219 124.761719 331.089844 C 124.761719 330 125.613281 329.289062 127.132812 329.097656 L 131.917969 328.527344 "
       style=" stroke:none;fill-rule:nonzero;fill:rgb(5.592346%,52.764893%,82.418823%);fill-opacity:1;" />
    <path
       id="path25"
       d="M 157.683594 337.617188 C 157.683594 337.898438 157.910156 338.128906 158.191406 338.128906 L 164.289062 338.128906 C 164.566406 338.128906 164.796875 337.898438 164.796875 337.617188 L 164.796875 324.058594 C 164.796875 318.652344 162.136719 315.621094 157.304688 315.621094 C 153.878906 315.621094 151.429688 317.464844 150.066406 319.445312 L 150.066406 316.65625 C 150.066406 316.378906 149.835938 316.148438 149.558594 316.148438 L 143.722656 316.148438 C 143.441406 316.148438 143.214844 316.378906 143.214844 316.65625 L 143.214844 337.617188 C 143.214844 337.898438 143.441406 338.128906 143.722656 338.128906 L 149.730469 338.128906 C 150.011719 338.128906 150.242188 337.898438 150.242188 337.617188 L 150.242188 327.445312 C 150.242188 324.148438 151.875 322.433594 154.203125 322.433594 C 156.3125 322.433594 157.683594 323.578125 157.683594 326.476562 L 157.683594 337.617188 "
       style=" stroke:none;fill-rule:nonzero;fill:rgb(5.592346%,52.764893%,82.418823%);fill-opacity:1;" />
    <path
       id="path27"
       d="M 213.472656 375.386719 C 213.472656 375.667969 213.699219 375.898438 213.976562 375.898438 L 220.011719 375.898438 C 220.289062 375.898438 220.519531 375.667969 220.519531 375.390625 L 220.519531 361.832031 C 220.519531 356.425781 218.007812 353.394531 213.222656 353.394531 C 209.832031 353.394531 207.722656 355.238281 206.375 357.21875 L 206.375 354.429688 C 206.375 354.148438 206.148438 353.921875 205.871094 353.921875 L 200.097656 353.921875 C 199.816406 353.921875 199.59375 354.148438 199.59375 354.429688 L 199.59375 375.390625 C 199.59375 375.667969 199.816406 375.898438 200.097656 375.898438 L 206.046875 375.898438 C 206.320312 375.898438 206.550781 375.671875 206.550781 375.390625 L 206.550781 365.21875 C 206.550781 361.921875 207.972656 360.207031 210.277344 360.207031 C 212.363281 360.207031 213.472656 361.347656 213.472656 364.25 L 213.472656 375.386719 "
       style=" stroke:none;fill-rule:nonzero;fill:rgb(5.592346%,52.764893%,82.418823%);fill-opacity:1;" />
    <path
       id="path29"
       d="M 76.460938 375.386719 C 76.460938 375.667969 76.6875 375.898438 76.96875 375.898438 L 83.003906 375.898438 C 83.28125 375.898438 83.507812 375.667969 83.507812 375.390625 L 83.507812 361.832031 C 83.507812 356.425781 80.996094 353.394531 76.214844 353.394531 C 72.820312 353.394531 70.714844 355.238281 69.367188 357.21875 L 69.367188 354.429688 C 69.367188 354.148438 69.140625 353.921875 68.859375 353.921875 L 63.085938 353.921875 C 62.808594 353.921875 62.582031 354.148438 62.582031 354.429688 L 62.582031 375.390625 C 62.582031 375.667969 62.808594 375.898438 63.085938 375.898438 L 69.035156 375.898438 C 69.3125 375.898438 69.539062 375.671875 69.539062 375.390625 L 69.539062 365.21875 C 69.539062 361.921875 70.964844 360.207031 73.269531 360.207031 C 75.355469 360.207031 76.460938 361.347656 76.460938 364.25 L 76.460938 375.386719 "
       style=" stroke:none;fill-rule:nonzero;fill:rgb(5.592346%,52.764893%,82.418823%);fill-opacity:1;" />
    <path
       id="path31"
       d="M 176.148438 316.65625 C 176.148438 316.378906 175.921875 316.148438 175.640625 316.148438 L 169.632812 316.148438 C 169.351562 316.148438 169.121094 316.378906 169.121094 316.65625 L 169.121094 337.617188 C 169.121094 337.898438 169.351562 338.128906 169.632812 338.128906 L 175.640625 338.128906 C 175.921875 338.128906 176.148438 337.898438 176.148438 337.617188 Z M 168.507812 309.863281 C 168.507812 312.234375 170.261719 313.992188 172.636719 313.992188 C 175.007812 313.992188 176.765625 312.234375 176.765625 309.863281 C 176.765625 307.488281 175.007812 305.730469 172.636719 305.730469 C 170.261719 305.730469 168.507812 307.488281 168.507812 309.863281 "
       style=" stroke:none;fill-rule:nonzero;fill:rgb(5.592346%,52.764893%,82.418823%);fill-opacity:1;" />
    <path
       id="path33"
       d="M 58.578125 354.429688 C 58.578125 354.148438 58.351562 353.921875 58.074219 353.921875 L 52.125 353.921875 C 51.847656 353.921875 51.621094 354.148438 51.621094 354.429688 L 51.621094 375.390625 C 51.621094 375.667969 51.847656 375.898438 52.125 375.898438 L 58.074219 375.898438 C 58.351562 375.898438 58.578125 375.667969 58.578125 375.390625 Z M 51.011719 347.632812 C 51.011719 350.007812 52.753906 351.765625 55.101562 351.765625 C 57.449219 351.765625 59.1875 350.007812 59.1875 347.632812 C 59.1875 345.261719 57.449219 343.503906 55.101562 343.503906 C 52.753906 343.503906 51.011719 345.261719 51.011719 347.632812 "
       style=" stroke:none;fill-rule:nonzero;fill:rgb(5.592346%,52.764893%,82.418823%);fill-opacity:1;" />
    <path
       id="path35"
       d="M 114.859375 345.636719 C 114.859375 345.359375 114.628906 345.128906 114.347656 345.128906 L 108.339844 345.128906 C 108.058594 345.128906 107.828125 345.359375 107.828125 345.636719 L 107.828125 375.386719 C 107.828125 375.667969 108.058594 375.898438 108.339844 375.898438 L 114.347656 375.898438 C 114.628906 375.898438 114.859375 375.667969 114.859375 375.390625 L 114.859375 345.636719 "
       style=" stroke:none;fill-rule:nonzero;fill:rgb(5.592346%,52.764893%,82.418823%);fill-opacity:1;" />
    <path
       id="path37"
       d="M 170.972656 354.429688 C 170.972656 354.148438 170.746094 353.921875 170.46875 353.921875 L 164.519531 353.921875 C 164.242188 353.921875 164.015625 354.148438 164.015625 354.429688 L 164.015625 375.390625 C 164.015625 375.667969 164.242188 375.898438 164.519531 375.898438 L 170.46875 375.898438 C 170.746094 375.898438 170.972656 375.667969 170.972656 375.390625 Z M 163.40625 347.632812 C 163.40625 350.007812 165.144531 351.765625 167.492188 351.765625 C 169.839844 351.765625 171.582031 350.007812 171.582031 347.632812 C 171.582031 345.261719 169.839844 343.503906 167.492188 343.503906 C 165.144531 343.503906 163.40625 345.261719 163.40625 347.632812 "
       style=" stroke:none;fill-rule:nonzero;fill:rgb(5.592346%,52.764893%,82.418823%);fill-opacity:1;" />
    <path
       id="path39"
       d="M 194.941406 337.695312 C 193.175781 338.117188 191.371094 338.347656 190.019531 338.347656 C 185.847656 338.347656 183.300781 336.28125 183.300781 331.046875 L 183.300781 321.949219 L 180.03125 321.949219 C 179.753906 321.949219 179.523438 321.71875 179.523438 321.441406 L 179.523438 316.65625 C 179.523438 316.378906 179.753906 316.148438 180.03125 316.148438 L 183.300781 316.148438 L 183.300781 310.769531 C 183.300781 310.488281 183.53125 310.257812 183.8125 310.257812 L 189.820312 310.257812 C 190.101562 310.257812 190.328125 310.488281 190.328125 310.769531 L 190.328125 316.148438 L 195.132812 316.148438 C 195.414062 316.148438 195.644531 316.378906 195.644531 316.65625 L 195.644531 321.441406 C 195.644531 321.71875 195.414062 321.949219 195.132812 321.949219 L 190.328125 321.949219 L 190.328125 329.597656 C 190.328125 330.832031 191.074219 331.179688 192.351562 331.179688 C 192.816406 331.179688 193.382812 331.113281 194.753906 330.914062 C 194.777344 330.910156 194.800781 330.910156 194.828125 330.910156 C 195.105469 330.910156 195.335938 331.136719 195.335938 331.417969 L 195.335938 337.199219 C 195.335938 337.441406 195.167969 337.644531 194.941406 337.695312 "
       style=" stroke:none;fill-rule:nonzero;fill:rgb(5.592346%,52.764893%,82.418823%);fill-opacity:1;" />
    <path
       id="path41"
       d="M 101.296875 362.015625 C 100.359375 361.070312 99.167969 360.292969 97.511719 360.292969 C 94.703125 360.292969 92.84375 362.183594 92.84375 364.910156 C 92.84375 367.636719 94.726562 369.523438 97.511719 369.523438 C 99.164062 369.523438 100.347656 368.742188 101.28125 367.796875 C 101.371094 367.707031 101.496094 367.648438 101.632812 367.644531 C 101.816406 367.644531 101.976562 367.738281 102.066406 367.882812 L 105.09375 372.703125 C 105.140625 372.78125 105.167969 372.875 105.167969 372.972656 C 105.167969 373.113281 105.109375 373.242188 105.019531 373.335938 C 103.195312 375.121094 100.632812 376.425781 97.386719 376.425781 C 91.089844 376.425781 86.125 372.074219 86.125 364.910156 C 86.125 357.746094 91.089844 353.394531 97.386719 353.394531 C 100.632812 353.394531 103.207031 354.6875 105.027344 356.472656 C 105.121094 356.566406 105.179688 356.695312 105.179688 356.839844 C 105.179688 356.9375 105.152344 357.027344 105.101562 357.109375 L 102.074219 361.929688 C 101.984375 362.070312 101.828125 362.164062 101.652344 362.164062 C 101.515625 362.164062 101.386719 362.105469 101.296875 362.015625 "
       style=" stroke:none;fill-rule:nonzero;fill:rgb(5.592346%,52.764893%,82.418823%);fill-opacity:1;" />
    <path
       id="path43"
       d="M 35.179688 369.261719 C 34.09375 370.171875 33.152344 370.542969 31.925781 370.542969 C 29.847656 370.542969 28.089844 368.769531 28.089844 366.667969 C 28.089844 364.90625 28.914062 363.429688 30.472656 362.402344 L 30.511719 362.378906 L 30.539062 362.414062 C 32.078125 364.660156 33.726562 367.0625 35.1875 369.195312 L 35.214844 369.234375 Z M 32.867188 349.503906 C 34.054688 349.503906 34.851562 350.292969 34.851562 351.464844 C 34.851562 353.066406 33.625 353.8125 32.542969 354.472656 C 32.421875 354.546875 32.304688 354.617188 32.191406 354.691406 L 32.152344 354.714844 L 32.125 354.679688 C 32 354.523438 30.886719 353.101562 30.886719 351.601562 C 30.886719 350.445312 31.773438 349.503906 32.867188 349.503906 Z M 46.238281 375.175781 L 42.644531 369.957031 L 42.660156 369.925781 C 45.253906 365.972656 45.703125 362.160156 45.921875 360.328125 C 45.945312 360.117188 45.96875 359.929688 45.988281 359.769531 C 45.992188 359.738281 45.996094 359.710938 45.992188 359.679688 C 45.984375 359.554688 45.929688 359.441406 45.839844 359.355469 C 45.746094 359.273438 45.625 359.230469 45.5 359.238281 L 40.539062 359.238281 C 40.328125 359.253906 40.152344 359.417969 40.117188 359.632812 C 40.117188 359.648438 39.976562 362.03125 38.929688 364.433594 L 38.894531 364.511719 L 35.265625 359.238281 L 35.898438 358.816406 C 38.5625 356.765625 40.339844 354.671875 40.339844 351.144531 C 40.339844 349.097656 39.625 347.203125 38.328125 345.804688 C 36.972656 344.351562 35.066406 343.550781 32.949219 343.550781 C 29.917969 343.550781 27.320312 345.082031 25.992188 347.644531 C 24.484375 350.566406 24.914062 354.246094 27.148438 357.488281 L 27.242188 357.625 L 27.199219 357.652344 C 23.820312 359.652344 22.035156 362.832031 22.035156 366.84375 C 22.035156 369.367188 22.835938 371.6875 24.285156 373.378906 C 25.972656 375.339844 28.480469 376.378906 31.539062 376.378906 C 33.472656 376.378906 36.023438 376.140625 38.621094 374.292969 L 38.660156 374.265625 L 39.660156 375.722656 C 39.746094 375.835938 39.878906 375.898438 40.019531 375.898438 L 45.863281 375.898438 C 46.117188 375.898438 46.320312 375.691406 46.320312 375.4375 C 46.320312 375.34375 46.292969 375.253906 46.238281 375.175781 "
       style=" stroke:none;fill-rule:nonzero;fill:rgb(5.592346%,52.764893%,82.418823%);fill-opacity:1;" />
    <path
       id="path45"
       d="M 145.757812 368.933594 C 147.21875 369.722656 150.71875 370.585938 152.402344 370.492188 C 153.75 370.417969 154.199219 369.933594 154.199219 369.449219 C 154.191406 368.664062 153.636719 368.441406 149.496094 367.339844 C 146.632812 366.578125 143.730469 364.472656 143.730469 360.691406 C 143.730469 355.898438 146.921875 353.394531 152.644531 353.394531 C 155.960938 353.394531 158.496094 354.234375 160.414062 355.453125 C 160.554688 355.542969 160.648438 355.707031 160.648438 355.890625 C 160.648438 355.988281 160.625 356.078125 160.582031 356.152344 L 158.300781 360.246094 C 158.21875 360.398438 158.0625 360.507812 157.882812 360.515625 C 157.792969 360.519531 157.710938 360.496094 157.640625 360.460938 C 156.175781 359.671875 153.753906 359.179688 152.066406 359.273438 C 150.722656 359.347656 150.273438 359.941406 150.273438 360.425781 C 150.273438 360.953125 150.804688 361.46875 154.976562 362.433594 C 158.613281 363.269531 160.742188 365.304688 160.742188 369.085938 C 160.742188 373.871094 157.59375 376.425781 151.582031 376.425781 C 147.84375 376.425781 144.761719 375.566406 142.84375 373.996094 C 142.726562 373.898438 142.648438 373.742188 142.65625 373.566406 C 142.65625 373.472656 142.683594 373.386719 142.722656 373.3125 L 145.050781 369.121094 C 145.136719 368.964844 145.296875 368.859375 145.480469 368.855469 C 145.585938 368.851562 145.679688 368.882812 145.757812 368.933594 "
       style=" stroke:none;fill-rule:nonzero;fill:rgb(5.592346%,52.764893%,82.418823%);fill-opacity:1;" />
    <path
       id="path47"
       d="M 202.316406 346.917969 C 202.035156 346.917969 201.808594 346.6875 201.808594 346.40625 C 201.808594 346.335938 201.820312 346.265625 201.851562 346.203125 L 206.855469 334.832031 L 198.066406 316.878906 C 198.035156 316.8125 198.019531 316.738281 198.019531 316.65625 C 198.019531 316.378906 198.246094 316.148438 198.527344 316.148438 L 205.425781 316.148438 C 205.632812 316.148438 205.808594 316.269531 205.890625 316.445312 L 210.503906 326.609375 L 214.984375 316.445312 C 215.066406 316.269531 215.242188 316.148438 215.449219 316.148438 L 221.765625 316.148438 C 222.042969 316.148438 222.273438 316.378906 222.273438 316.65625 C 222.273438 316.730469 222.257812 316.800781 222.230469 316.863281 L 209.054688 346.613281 C 208.976562 346.792969 208.796875 346.917969 208.589844 346.917969 L 202.316406 346.917969 "
       style=" stroke:none;fill-rule:nonzero;fill:rgb(5.592346%,52.764893%,82.418823%);fill-opacity:1;" />
  </g>
</svg>
