<?xml version="1.0" encoding="utf-8"?>
<!-- Generator: Adobe Illustrator 25.2.0, SVG Export Plug-In . SVG Version: 6.00 Build 0)  -->
<svg version="1.1" id="Calque_1" xmlns="http://www.w3.org/2000/svg" xmlns:xlink="http://www.w3.org/1999/xlink" x="0px" y="0px"
	 viewBox="0 0 1050 484" style="enable-background:new 0 0 1050 484;" xml:space="preserve">
<style type="text/css">
	.st0{fill:#0077C8;}
</style>
<g>
	<g>
		<g>
			<path class="st0" d="M324.6,169.1c17.5-18.4,16.7-47.5-1.7-65s-47.5-16.7-65,1.7c-17.4,18.3-16.8,47.2,1.4,64.7
				C278.2,187.1,306.5,186.5,324.6,169.1z"/>
		</g>
		<g>
			<path class="st0" d="M198.4,393.3c-8.5,0-16.9-3.9-22.3-11.3c-9-12.3-6.3-29.6,6-38.6c31.9-23.3,69.7-35.6,109.3-35.6
				c39.2,0,76.6,12.1,108.3,34.9c12.4,8.9,15.2,26.2,6.3,38.6c-8.9,12.4-26.2,15.2-38.6,6.3c-22.2-16-48.5-24.5-76-24.5
				c-27.8,0-54.3,8.6-76.7,25C209.8,391.6,204.1,393.3,198.4,393.3z"/>
		</g>
		<g>
			<path class="st0" d="M463.1,327.9c-6.5,0-13.1-2.3-18.4-7c-42.2-37.6-96.7-58.4-153.3-58.4c-56.6,0-111.1,20.7-153.3,58.4
				c-11.4,10.2-28.9,9.2-39-2.2c-10.2-11.4-9.2-28.9,2.2-39c52.4-46.7,119.9-72.4,190.1-72.4s137.7,25.7,190.1,72.4
				c11.4,10.2,12.4,27.6,2.2,39C478.3,324.8,470.7,327.9,463.1,327.9z"/>
		</g>
	</g>
	<g>
		<g>
			<path class="st0" d="M579.7,162.3c22.5,0,39.3,15.7,39.3,40.1s-16.8,40.1-39.3,40.1c-22.5,0-39.3-15.7-39.3-40.1
				C540.4,177.7,557.2,162.3,579.7,162.3z M579.4,186.3c-8.6,0-15.7,6.1-15.7,16.1s7.2,16.1,15.7,16.1c8.6,0,15.7-6.1,15.7-16.1
				C595.1,192,588,186.3,579.4,186.3z"/>
		</g>
		<g>
			<path class="st0" d="M655.5,271.5h-20.9c-1.1,0-1.8-0.7-1.8-1.8V165.8c0-0.9,0.3-1.7,1.4-1.7h21.3c0.8,0,1.4,0.7,1.4,1.8v8.6
				c0,0,9.2-12.2,23.4-12.2c18.7,0,31.7,15.8,31.7,40.3c0,24.1-12.6,39.9-31.3,39.9c-17.5,0-23.8-12.2-23.8-12.2l0.4,39.3
				C657.3,270.7,656.5,271.5,655.5,271.5z M672.7,186.4c-9.4,0-15.8,6.8-15.8,16.2c0,9.4,6.5,16.2,15.8,16.2
				c9.4,0,15.8-6.8,15.8-16.2C688.6,193.3,682.1,186.4,672.7,186.4z"/>
		</g>
		<g>
			<path class="st0" d="M795.1,233.8c0,0.7-0.3,1.2-0.7,1.5c-6.4,3.9-15.3,7.1-29.1,7.1c-27.7,0.4-42.2-18.1-42.2-40.4
				c0-22.7,15.6-39.7,40.1-39.7c23.1,0,38.3,15.3,38.3,41.2v5c0,0,0,0.8-0.4,1.4c-0.3,0.5-1.2,0.4-1.2,0.4H748
				c0.3,0.3,5.4,11.7,18.3,11.7c7.3,0,13.4-2.1,18.8-5.3c0.6-0.4,0.7-0.4,1.1-0.4c0.7,0,1.3,0.4,1.8,1.4l7,15.3
				C795,233,795.1,233,795.1,233.8z M747.5,193.4h31.2c-1.1-6.4-6.4-11.7-14.9-11.7C756,181.7,750,184.9,747.5,193.4z"/>
		</g>
		<g>
			<path class="st0" d="M863.5,199.7c0-10-4.3-13.9-11.8-13.9c-8.3,0-13.6,6.1-13.6,17.4v35.9c0,1.1-0.7,1.8-1.8,1.8h-21.2
				c-1.1,0-1.8-0.7-1.8-1.8v-73.2c0-1.1,0.7-1.8,1.8-1.8h20.5c1.1,0,1.8,0.7,1.8,1.8v9.6c4.7-6.8,12.6-13.2,24.7-13.2
				c17.2,0,26.2,10.3,26.2,29.2v47.6c0,1.1-0.7,1.8-1.8,1.8h-21.2c-1.1,0-1.8-0.7-1.8-1.8V199.7z"/>
		</g>
	</g>
	<g>
		<g>
			<path class="st0" d="M590.4,323.5c-11.2,0-17.8,5.1-17.8,18.7V375c0,1.1-0.7,1.8-1.8,1.8h-21c-1.1,0-1.8-0.7-1.8-1.8v-74.6
				c0-1.1,0.7-1.8,1.8-1.8h20.3c1.1,0,1.8,0.7,1.8,1.8v11.8c4-9.6,10.5-15.4,21.4-15.4c2.5,0,4.4,0.2,6.2,0.7
				c1.3,0.4,1.5,1.1,1.5,1.8v23.5c0,0.4,0,1.3-0.5,1.6c-0.7,0.5-1.3,0.1-2-0.2C595.9,323.5,593,323.5,590.4,323.5z"/>
		</g>
		<g>
			<path class="st0" d="M677.5,369.7c0,0.7-0.3,1.3-0.8,1.5c-6.5,4-15.6,7.2-29.7,7.2c-28.3,0.4-43.1-18.5-43.1-41.3
				c0-23.2,15.9-40.6,40.9-40.6c23.6,0,39.1,15.6,39.1,42v5.1c0,0,0,0.8-0.4,1.4c-0.3,0.5-1.3,0.4-1.3,0.4h-52.9
				c0.3,0.3,5.5,11.9,18.7,12c7.4,0,13.7-2.2,19.2-5.4c0.6-0.4,0.7-0.4,1.1-0.4c0.7,0,1.3,0.4,1.8,1.4l7.1,15.7
				C677.4,369,677.5,368.9,677.5,369.7z M628.9,328.5h31.9c-1.1-6.5-6.5-12-15.2-12C637.6,316.5,631.5,319.8,628.9,328.5z"/>
		</g>
		<g>
			<path class="st0" d="M721.9,310.4c4.8-7.7,12.5-13.8,24.6-13.8c17.3,0,26.6,10.9,26.6,30.1V375c0,1-1,1.9-1.9,1.9h-21.8
				c-1,0-1.9-1-1.9-1.9v-39.7c0-10.2-4.5-14.4-12.2-14.4c-8.3,0-13.8,6.1-13.8,17.9V375c0,1-1,1.9-1.9,1.9h-21.4c-1,0-1.9-1-1.9-1.9
				V269.1c0-1,1-1.9,1.9-1.9h21.4c1,0,1.9,1,1.9,1.9L721.9,310.4z"/>
		</g>
		<g>
			<path class="st0" d="M858.4,330.4V375c0,1-1,1.9-1.9,1.9h-21.3c-0.9,0-1.9-1-1.9-1.9v-8c-3.5,5.4-10.5,12.1-23.2,12.1
				c-14.6,0-26.4-9.5-26.4-24.5c0-14,10.2-23.6,24.5-24.8l21.3-1.9c2.5-0.3,3.5-1.3,3.5-2.5v-0.6c0-3.5-5.4-6.4-13.4-6.4
				c-6,0-14,1.3-18.1,6.4c-0.6,1-1.9,1-2.5,0.3l-12.7-10.2c-0.6-0.6-1-1.9-0.3-2.5c6.7-10.8,20.7-15.3,36.6-15.6
				C846,296.7,858.4,306.5,858.4,330.4z M833,343.1l-16.9,2.2c-5.4,0.6-8.6,3.2-8.6,7c0,4.1,3.2,7,9.6,7c9.2,0,15.9-6,15.9-14.6
				V343.1z"/>
		</g>
		<g>
			<path class="st0" d="M876.8,267.4H899c1.1,0,1.9,0.7,1.9,1.8v40.6c0,0,5.4-13.1,25.3-13.1c19.9,0,33.3,16.7,33.3,41.1
				c0,24.3-13.8,41-33.7,41c-20.3,0-24.9-12.7-24.9-12.7v4.2v4.6c0,1.1-0.8,2-1.9,2h-22.2c-1.1,0-1.9-0.9-1.9-2V269.2
				C874.9,268.1,875.7,267.4,876.8,267.4z M917.4,354.1c9.6,0,16.8-6.9,16.8-16.4c0-9.4-6.9-16.4-16.8-16.4
				c-9.6,0-16.8,6.9-16.8,16.4C900.9,347.2,907.8,354.1,917.4,354.1z"/>
		</g>
	</g>
</g>
</svg>
