<svg version="1.2" baseProfile="tiny-ps" xmlns="http://www.w3.org/2000/svg" viewBox="0 0 1124 302" width="60" height="16">
	<style>
		tspan { white-space:pre }
		.shp0 { fill: #2473b9 }
	</style>
	<g id="Layer">
		<g id="Layer">
			<g id="Layer">
				<g id="Layer">
					<g id="Layer">
						<path id="Layer" class="shp0" d="M232.7 77.9C250.2 59.5 249.4 30.4 231 12.9C212.6 -4.6 183.5 -3.8 166 14.6C148.6 32.9 149.2 61.8 167.4 79.3C186.2 95.8 214.6 95.2 232.7 77.9Z" />
					</g>
					<g id="Layer">
						<path id="Layer" class="shp0" d="M106.5 302.1C98 302.1 89.6 298.2 84.2 290.8C75.2 278.5 77.9 261.2 90.2 252.2C122.1 228.9 159.9 216.6 199.5 216.6C238.7 216.6 276.1 228.7 307.8 251.5C320.2 260.4 323 277.7 314.1 290.1C305.2 302.5 287.9 305.3 275.5 296.4C253.3 280.4 227 271.9 199.5 271.9C171.7 271.9 145.2 280.5 122.8 296.9C117.9 300.4 112.1 302.1 106.5 302.1Z" />
					</g>
					<g id="Layer">
						<path id="Layer" class="shp0" d="M371.2 236.7C364.7 236.7 358.1 234.4 352.8 229.7C310.6 192.1 256.1 171.3 199.5 171.3C142.9 171.3 88.4 192 46.2 229.7C34.8 239.9 17.3 238.9 7.2 227.5C-3 216.1 -2 198.6 9.4 188.5C61.8 141.8 129.3 116.1 199.5 116.1C269.7 116.1 337.2 141.8 389.6 188.5C401 198.7 402 216.1 391.8 227.5C386.3 233.6 378.8 236.7 371.2 236.7Z" />
					</g>
				</g>
				<g id="Layer">
					<path id="Layer" fill-rule="evenodd" class="shp0" d="M488.6 71.7C511.1 71.7 527.8 87.4 527.8 111.6C527.8 135.8 511 151.5 488.6 151.5C466.1 151.5 449.4 135.8 449.4 111.6C449.4 87.1 466.1 71.7 488.6 71.7ZM488.2 95.6C479.6 95.6 472.5 101.7 472.5 111.7C472.5 121.7 479.6 127.8 488.2 127.8C496.8 127.8 503.9 121.7 503.9 111.7C503.9 101.4 496.8 95.6 488.2 95.6Z" />
					<path id="Layer" fill-rule="evenodd" class="shp0" d="M564 180.6L543.2 180.6C542.1 180.6 541.4 179.9 541.4 178.8L541.4 75.2C541.4 74.3 541.7 73.5 542.8 73.5L564 73.5C564.8 73.5 565.4 74.2 565.4 75.3L565.4 83.9C565.4 83.9 574.6 71.7 588.7 71.7C607.4 71.7 620.3 87.5 620.3 111.9C620.3 136 607.7 151.7 589.1 151.7C571.7 151.7 565.4 139.6 565.4 139.6L565.8 178.8C565.8 179.9 565 180.6 564 180.6ZM581.2 95.8C571.9 95.8 565.4 102.6 565.4 112C565.4 121.3 571.9 128.2 581.2 128.2C590.5 128.2 597 121.3 597 112C597 102.6 590.5 95.8 581.2 95.8Z" />
					<path id="Layer" fill-rule="evenodd" class="shp0" d="M703.1 143C703.1 143.7 702.8 144.2 702.4 144.5C696 148.4 687.2 151.6 673.4 151.6C645.8 152 631.3 133.6 631.3 111.3C631.3 88.7 646.9 71.7 671.3 71.7C694.3 71.7 709.5 86.9 709.5 112.7L709.5 117.7C709.5 117.7 709.5 118.5 709.1 119.1C708.8 119.6 707.9 119.5 707.9 119.5L656.2 119.5C656.5 119.8 661.5 131.1 674.5 131.2C681.8 131.2 687.9 129.1 693.3 125.9C693.9 125.5 694 125.5 694.4 125.5C695.1 125.5 695.7 125.9 696.2 126.9L703.2 142.2C703 142.3 703.1 142.3 703.1 143ZM655.6 102.8L686.7 102.8C685.6 96.4 680.3 91.1 671.8 91.1C664.1 91.1 658.1 94.3 655.6 102.8Z" />
					<path id="Layer" class="shp0" d="M771.2 109C771.2 99.1 766.9 95.2 759.4 95.2C751.2 95.2 745.8 101.2 745.8 112.6L745.8 148.4C745.8 149.5 745.1 150.2 744 150.2L722.9 150.2C721.8 150.2 721.1 149.5 721.1 148.4L721.1 75.4C721.1 74.3 721.8 73.6 722.9 73.6L743.3 73.6C744.4 73.6 745.1 74.3 745.1 75.4L745.1 85C749.8 78.3 757.6 71.9 769.8 71.9C787 71.9 795.9 82.2 795.9 101L795.9 148.5C795.9 149.6 795.2 150.3 794.1 150.3L773 150.3C771.9 150.3 771.2 149.6 771.2 148.5L771.2 109Z" />
					<path id="Layer" class="shp0" d="M480.9 286.8C466.2 286.8 457.3 279.6 457.3 261.4L457.3 229.6L445.9 229.6C444.8 229.6 444.1 228.9 444.1 227.8L444.1 211.4C444.1 210.3 444.8 209.6 445.9 209.6L457.3 209.6L457.3 191C457.3 189.9 458 189.2 459.1 189.2L480.2 189.2C481.3 189.2 482 189.9 482 191L482 209.6L498.8 209.6C499.9 209.6 500.6 210.3 500.6 211.4L500.6 228.2C500.6 229.3 499.9 230 498.8 230L482 230L482 256.5C482 260.8 484.5 261.9 489.2 261.9C491 261.9 492.8 261.5 497.8 260.8L498.2 260.8C499.3 260.8 500 261.5 500 262.6L500 282.6C500 283.9 498.9 284.6 498.2 284.7C492.1 286.2 485.6 286.8 480.9 286.8Z" />
					<path id="Layer" fill-rule="evenodd" class="shp0" d="M578.7 279C578.7 279.7 578.4 280.2 578 280.5C571.6 284.4 562.8 287.6 549 287.6C521.4 288 506.9 269.6 506.9 247.3C506.9 224.7 522.5 207.7 546.9 207.7C569.9 207.7 585.1 222.9 585.1 248.7L585.1 253.7C585.1 253.7 585.1 254.5 584.7 255.1C584.4 255.6 583.5 255.5 583.5 255.5L531.8 255.5C532.1 255.8 537.1 267.1 550.1 267.2C557.4 267.2 563.5 265.1 568.9 261.9C569.5 261.5 569.6 261.5 570 261.5C570.7 261.5 571.3 261.9 571.8 262.9L578.8 278.2C578.6 278.3 578.7 278.3 578.7 279ZM531.3 238.8L562.4 238.8C561.3 232.4 556 227.1 547.5 227.1C539.7 227.1 533.7 230.3 531.3 238.8Z" />
					<path id="Layer" class="shp0" d="M621.1 284.2C621.1 285.3 620.4 286 619.3 286L598 286C596.9 286 596.2 285.2 596.2 284.2L596.2 181C596.2 179.9 596.9 179 598 179L619.3 179C620.4 179 621.1 179.9 621.1 181L621.1 284.2L621.1 284.2Z" />
					<path id="Layer" fill-rule="evenodd" class="shp0" d="M704.3 279C704.3 279.7 704 280.2 703.6 280.5C697.2 284.4 688.4 287.6 674.6 287.6C647 288 632.5 269.6 632.5 247.3C632.5 224.7 648.1 207.7 672.5 207.7C695.5 207.7 710.7 222.9 710.7 248.7L710.7 253.7C710.7 253.7 710.7 254.5 710.3 255.1C710 255.6 709.1 255.5 709.1 255.5L657.4 255.5C657.7 255.8 662.7 267.1 675.7 267.2C683 267.2 689.1 265.1 694.5 261.9C695.1 261.5 695.2 261.5 695.6 261.5C696.3 261.5 696.9 261.9 697.4 262.9L704.4 278.2C704.2 278.3 704.3 278.3 704.3 279ZM656.9 238.8L688 238.8C686.9 232.4 681.6 227.1 673.1 227.1C665.4 227.1 659.3 230.3 656.9 238.8Z" />
					<path id="Layer" class="shp0" d="M764 234C753 234 746.7 239 746.7 252.3L746.7 284.3C746.7 285.4 746 286.1 744.9 286.1L724.4 286.1C723.3 286.1 722.6 285.4 722.6 284.3L722.6 211.4C722.6 210.3 723.3 209.6 724.4 209.6L744.2 209.6C745.3 209.6 746 210.3 746 211.4L746 222.9C749.9 213.6 756.3 207.8 766.9 207.8C769.4 207.8 771.2 208 772.9 208.5C774.1 208.8 774.3 209.6 774.3 210.3L774.3 233.3C774.3 233.7 774.3 234.6 773.8 234.9C773.1 235.3 772.6 235 771.8 234.7C769.3 234 766.5 234 764 234Z" />
					<path id="Layer" fill-rule="evenodd" class="shp0" d="M848.9 279C848.9 279.7 848.6 280.2 848.2 280.5C841.8 284.4 833 287.6 819.2 287.6C791.6 288 777.1 269.6 777.1 247.3C777.1 224.7 792.7 207.7 817.1 207.7C840.1 207.7 855.3 222.9 855.3 248.7L855.3 253.7C855.3 253.7 855.3 254.5 854.9 255.1C854.6 255.6 853.7 255.5 853.7 255.5L802 255.5C802.3 255.8 807.3 267.1 820.3 267.2C827.6 267.2 833.7 265.1 839.1 261.9C839.7 261.5 839.8 261.5 840.2 261.5C840.9 261.5 841.5 261.9 842 262.9L849 278.2C848.8 278.3 848.9 278.3 848.9 279ZM801.4 238.8L832.5 238.8C831.4 232.4 826.1 227.1 817.6 227.1C809.9 227.1 803.9 230.3 801.4 238.8Z" />
					<path id="Layer" class="shp0" d="M892.1 221.1C896.8 213.6 904.3 207.7 916.2 207.7C933.1 207.7 942.1 218.3 942.1 237.1L942.1 284.3C942.1 285.2 941.2 286.2 940.2 286.2L919 286.2C918.1 286.2 917.1 285.3 917.1 284.3L917.1 245.6C917.1 235.6 912.7 231.5 905.2 231.5C897.1 231.5 891.8 237.4 891.8 249L891.8 284.3C891.8 285.2 890.9 286.2 889.9 286.2L869 286.2C868.1 286.2 867.1 285.3 867.1 284.3L867.1 180.8C867.1 179.9 868 178.9 869 178.9L889.9 178.9C890.8 178.9 891.8 179.8 891.8 180.8L892.1 221.1Z" />
					<path id="Layer" fill-rule="evenodd" class="shp0" d="M1025.3 240.6L1025.3 284.1C1025.3 285 1024.4 286 1023.4 286L1002.6 286C1001.7 286 1000.7 285.1 1000.7 284.1L1000.7 276.3C997.3 281.6 990.4 288.1 978 288.1C963.7 288.1 952.2 278.8 952.2 264.2C952.2 250.5 962.1 241.2 976.1 240L996.9 238.1C999.4 237.8 1000.3 236.9 1000.3 235.6L1000.3 235C1000.3 231.6 995 228.8 987.2 228.8C981.3 228.8 973.5 230 969.5 235C968.9 235.9 967.6 235.9 967 235.3L954.6 225.4C954 224.8 953.7 223.5 954.3 222.9C960.8 212.3 974.5 208 990.1 207.7C1013.2 207.7 1025.3 217.3 1025.3 240.6ZM1000.3 253.1L1000.3 253.11L1000.4 253.1L1000.3 253.1ZM983.9 255.3C978.6 255.9 975.5 258.4 975.5 262.1C975.5 266.1 978.6 268.9 984.8 268.9C993.8 268.9 1000.3 263 1000.3 254.6L1000.3 253.11L983.9 255.3Z" />
					<path id="Layer" fill-rule="evenodd" class="shp0" d="M1043.1 179.1L1064.8 179.1C1065.9 179.1 1066.7 179.8 1066.7 180.9L1066.7 220.6C1066.7 220.6 1072 207.8 1091.4 207.8C1110.8 207.8 1123.9 224.1 1123.9 247.9C1123.9 271.7 1110.4 287.9 1091 287.9C1071.2 287.9 1066.7 275.5 1066.7 275.5L1066.7 284.1C1066.7 285.2 1066 286 1064.8 286L1043.1 286C1042 286 1041.2 285.1 1041.2 284.1L1041.2 180.9C1041.3 179.8 1042 179.1 1043.1 179.1ZM1082.8 263.8C1092.1 263.8 1099.3 257.1 1099.3 247.8C1099.3 238.6 1092.6 231.8 1082.8 231.8C1073.5 231.8 1066.3 238.5 1066.3 247.8C1066.7 257.1 1073.4 263.8 1082.8 263.8Z" />
				</g>
			</g>
		</g>
	</g>
</svg>
