<svg width="64" height="64" viewBox="0 0 64 64" fill="none" xmlns="http://www.w3.org/2000/svg">
<path d="M23.2654 20.017C23.2284 19.929 23.2116 19.8352 23.216 19.7415C23.52 14.8068 27.9616 13.0909 32.016 13.0909C36.4864 13.0909 40.5696 15.2145 40.5696 19.6108C40.5696 22.7486 38.5376 24.2443 36.5888 25.5909C34.2304 27.2173 33.3568 27.8253 33.3568 29.9148V30.2202C33.3568 30.4119 33.2725 30.598 33.1225 30.7344C32.9725 30.8707 32.769 30.9474 32.5568 30.9474H29.9616C29.7516 30.9474 29.5501 30.8722 29.4004 30.7386C29.2507 30.6037 29.165 30.4219 29.1616 30.2315L29.152 29.5994C29.0304 26.9034 30.736 25.2415 32.8896 23.8196C34.7808 22.5284 35.9776 21.679 35.9776 19.831C35.9776 17.4318 33.968 16.4332 31.7728 16.4332C29.2064 16.4332 27.7664 17.8239 27.4784 19.733C27.4208 20.1307 27.0688 20.4602 26.6272 20.4602H23.9872C23.8838 20.4616 23.7811 20.4432 23.6854 20.4077C23.5897 20.3722 23.5031 20.3196 23.4309 20.2514C23.3587 20.1847 23.3023 20.1051 23.2654 20.017Z" fill="white"/>
<path d="M31.4304 39.2031C29.5584 39.2031 28.1984 38.0568 28.1984 36.5057C28.1984 34.9006 29.5584 33.7713 31.4272 33.7713C33.376 33.7713 34.72 34.9006 34.72 36.5057C34.72 38.0568 33.3792 39.2031 31.4304 39.2031Z" fill="white"/>
<path fill-rule="evenodd" clip-rule="evenodd" d="M3.2 0C1.43269 0 0 1.30256 0 2.90909V49.4545C0 51.0611 1.43269 52.3636 3.2 52.3636H16V61.0909C16 62.267 16.7797 63.3281 17.9754 63.7784C19.1712 64.2287 20.5475 63.9801 21.4627 63.1477L33.3255 52.3636H48C48.8487 52.3636 49.6626 52.0568 50.2627 51.5114L63.0627 39.875C63.6629 39.3295 64 38.5895 64 37.8182V2.90909C64 1.30256 62.5673 0 60.8 0H3.2ZM6.4 46.5454V5.81818H57.6V36.6136L46.6745 46.5454H32C31.1513 46.5454 30.3374 46.8523 29.7373 47.3977L22.4 54.0682V49.4545C22.4 47.848 20.9673 46.5454 19.2 46.5454H6.4Z" fill="white"/>
</svg>
